<?xml version="1.0" encoding="UTF-8" standalone="no"?>
<!-- Created with Inkscape (http://www.inkscape.org/) -->

<svg
   width="130.70416mm"
   height="172.77292mm"
   viewBox="0 0 130.70416 172.77292"
   version="1.1"
   id="svg1"
   xml:space="preserve"
   sodipodi:docname="logo_terminado.svg"
   inkscape:version="1.4.2 (f4327f4, 2025-05-13)"
   xmlns:inkscape="http://www.inkscape.org/namespaces/inkscape"
   xmlns:sodipodi="http://sodipodi.sourceforge.net/DTD/sodipodi-0.dtd"
   xmlns="http://www.w3.org/2000/svg"
   xmlns:svg="http://www.w3.org/2000/svg"><sodipodi:namedview
     id="namedview1"
     pagecolor="#505050"
     bordercolor="#eeeeee"
     borderopacity="1"
     inkscape:showpageshadow="0"
     inkscape:pageopacity="0"
     inkscape:pagecheckerboard="0"
     inkscape:deskcolor="#505050"
     inkscape:document-units="mm"
     inkscape:zoom="1.2358346"
     inkscape:cx="188.94114"
     inkscape:cy="297.36989"
     inkscape:window-width="1920"
     inkscape:window-height="1009"
     inkscape:window-x="1912"
     inkscape:window-y="-8"
     inkscape:window-maximized="1"
     inkscape:current-layer="svg1" /><defs
     id="defs1"><inkscape:path-effect
       effect="bspline"
       id="path-effect56"
       is_visible="true"
       lpeversion="1.3"
       weight="33.333333"
       steps="2"
       helper_size="0"
       apply_no_weight="true"
       apply_with_weight="true"
       only_selected="false"
       uniform="false" /><inkscape:path-effect
       effect="bspline"
       id="path-effect55"
       is_visible="true"
       lpeversion="1.3"
       weight="33.333333"
       steps="2"
       helper_size="0"
       apply_no_weight="true"
       apply_with_weight="true"
       only_selected="false"
       uniform="false" /><inkscape:path-effect
       effect="bspline"
       id="path-effect54"
       is_visible="true"
       lpeversion="1.3"
       weight="33.333333"
       steps="2"
       helper_size="0"
       apply_no_weight="true"
       apply_with_weight="true"
       only_selected="false"
       uniform="false" /><inkscape:path-effect
       effect="bspline"
       id="path-effect53"
       is_visible="true"
       lpeversion="1.3"
       weight="33.333333"
       steps="2"
       helper_size="0"
       apply_no_weight="true"
       apply_with_weight="true"
       only_selected="false"
       uniform="false" /><inkscape:path-effect
       effect="bspline"
       id="path-effect52"
       is_visible="true"
       lpeversion="1.3"
       weight="33.333333"
       steps="2"
       helper_size="0"
       apply_no_weight="true"
       apply_with_weight="true"
       only_selected="false"
       uniform="false" /><inkscape:path-effect
       effect="bspline"
       id="path-effect47"
       is_visible="true"
       lpeversion="1.3"
       weight="33.333333"
       steps="2"
       helper_size="0"
       apply_no_weight="true"
       apply_with_weight="true"
       only_selected="false"
       uniform="false" /><inkscape:path-effect
       effect="bspline"
       id="path-effect46"
       is_visible="true"
       lpeversion="1.3"
       weight="33.333333"
       steps="2"
       helper_size="0"
       apply_no_weight="true"
       apply_with_weight="true"
       only_selected="false"
       uniform="false" /><inkscape:path-effect
       effect="bspline"
       id="path-effect45"
       is_visible="true"
       lpeversion="1.3"
       weight="33.333333"
       steps="2"
       helper_size="0"
       apply_no_weight="true"
       apply_with_weight="true"
       only_selected="false"
       uniform="false" /><inkscape:path-effect
       effect="bspline"
       id="path-effect44"
       is_visible="true"
       lpeversion="1.3"
       weight="33.333333"
       steps="2"
       helper_size="0"
       apply_no_weight="true"
       apply_with_weight="true"
       only_selected="false"
       uniform="false" /><inkscape:path-effect
       effect="bspline"
       id="path-effect43"
       is_visible="true"
       lpeversion="1.3"
       weight="33.333333"
       steps="2"
       helper_size="0"
       apply_no_weight="true"
       apply_with_weight="true"
       only_selected="false"
       uniform="false" /><inkscape:path-effect
       effect="bspline"
       id="path-effect42"
       is_visible="true"
       lpeversion="1.3"
       weight="33.333333"
       steps="2"
       helper_size="0"
       apply_no_weight="true"
       apply_with_weight="true"
       only_selected="false"
       uniform="false" /><inkscape:path-effect
       effect="bspline"
       id="path-effect41"
       is_visible="true"
       lpeversion="1.3"
       weight="33.333333"
       steps="2"
       helper_size="0"
       apply_no_weight="true"
       apply_with_weight="true"
       only_selected="false"
       uniform="false" /><inkscape:path-effect
       effect="bspline"
       id="path-effect40"
       is_visible="true"
       lpeversion="1.3"
       weight="33.333333"
       steps="2"
       helper_size="0"
       apply_no_weight="true"
       apply_with_weight="true"
       only_selected="false"
       uniform="false" /><inkscape:path-effect
       effect="bspline"
       id="path-effect39"
       is_visible="true"
       lpeversion="1.3"
       weight="33.333333"
       steps="2"
       helper_size="0"
       apply_no_weight="true"
       apply_with_weight="true"
       only_selected="false"
       uniform="false" /><inkscape:path-effect
       effect="bspline"
       id="path-effect38"
       is_visible="true"
       lpeversion="1.3"
       weight="33.333333"
       steps="2"
       helper_size="0"
       apply_no_weight="true"
       apply_with_weight="true"
       only_selected="false"
       uniform="false" /><inkscape:path-effect
       effect="bspline"
       id="path-effect37"
       is_visible="true"
       lpeversion="1.3"
       weight="33.333333"
       steps="2"
       helper_size="0"
       apply_no_weight="true"
       apply_with_weight="true"
       only_selected="false"
       uniform="false" /><inkscape:path-effect
       effect="bspline"
       id="path-effect36"
       is_visible="true"
       lpeversion="1.3"
       weight="33.333333"
       steps="2"
       helper_size="0"
       apply_no_weight="true"
       apply_with_weight="true"
       only_selected="false"
       uniform="false" /><inkscape:path-effect
       effect="skeletal"
       id="path-effect35"
       is_visible="true"
       lpeversion="1"
       pattern="M 0,4.9921384 C 0,2.236478 2.236478,0 4.9921384,0 c 2.7556604,0 4.9921384,2.236478 4.9921384,4.9921384 0,2.7556604 -2.236478,4.9921384 -4.9921384,4.9921384 C 2.236478,9.9842768 0,7.7477988 0,4.9921384 Z"
       copytype="single_stretched"
       prop_scale="1"
       scale_y_rel="false"
       spacing="0"
       normal_offset="0"
       tang_offset="0"
       prop_units="false"
       vertical_pattern="false"
       hide_knot="false"
       fuse_tolerance="0" /><inkscape:path-effect
       effect="bspline"
       id="path-effect34"
       is_visible="true"
       lpeversion="1.3"
       weight="33.333333"
       steps="2"
       helper_size="0"
       apply_no_weight="true"
       apply_with_weight="true"
       only_selected="false"
       uniform="false" /><inkscape:path-effect
       effect="skeletal"
       id="path-effect33"
       is_visible="true"
       lpeversion="1"
       pattern="M 0,4.9921384 C 0,2.236478 2.236478,0 4.9921384,0 c 2.7556604,0 4.9921384,2.236478 4.9921384,4.9921384 0,2.7556604 -2.236478,4.9921384 -4.9921384,4.9921384 C 2.236478,9.9842768 0,7.7477988 0,4.9921384 Z"
       copytype="single_stretched"
       prop_scale="1"
       scale_y_rel="false"
       spacing="0"
       normal_offset="0"
       tang_offset="0"
       prop_units="false"
       vertical_pattern="false"
       hide_knot="false"
       fuse_tolerance="0" /><inkscape:path-effect
       effect="bspline"
       id="path-effect32"
       is_visible="true"
       lpeversion="1.3"
       weight="33.333333"
       steps="2"
       helper_size="0"
       apply_no_weight="true"
       apply_with_weight="true"
       only_selected="false"
       uniform="false" /><inkscape:path-effect
       effect="bspline"
       id="path-effect31"
       is_visible="true"
       lpeversion="1.3"
       weight="33.333333"
       steps="2"
       helper_size="0"
       apply_no_weight="true"
       apply_with_weight="true"
       only_selected="false"
       uniform="false" /><inkscape:path-effect
       effect="bspline"
       id="path-effect30"
       is_visible="true"
       lpeversion="1.3"
       weight="33.333333"
       steps="2"
       helper_size="0"
       apply_no_weight="true"
       apply_with_weight="true"
       only_selected="false"
       uniform="false" /><inkscape:path-effect
       effect="bspline"
       id="path-effect29"
       is_visible="true"
       lpeversion="1.3"
       weight="33.333333"
       steps="2"
       helper_size="0"
       apply_no_weight="true"
       apply_with_weight="true"
       only_selected="false"
       uniform="false" /></defs><g
     id="g47"
     style="display:inline;opacity:1;mix-blend-mode:normal;fill:#000000;fill-opacity:1"
     inkscape:label="Nodos solo logo"
     transform="translate(-31.653611,-47.23531)"><path
       id="path30"
       style="display:inline;opacity:1;mix-blend-mode:normal;fill:#000000;fill-opacity:1;stroke-width:0.264583"
       inkscape:label="Mango Izq"
       d="m 93.007397,152.15799 -7.491015,7.50755 -2.331641,-2.39778 -18.658292,18.34151 c -3.731727,3.66834 -3.7319,3.66851 -3.784266,3.76773 -0.05237,0.0992 -0.157097,0.29766 -0.239778,0.53744 -0.08268,0.23978 -0.143316,0.52072 -0.181901,0.78806 -0.03859,0.26735 -0.05495,0.52107 -0.05219,0.74983 0.0028,0.22875 0.0248,0.43287 0.06615,0.67541 0.04134,0.24253 0.101801,0.52331 0.192753,0.80719 0.09095,0.28387 0.212044,0.57085 0.358118,0.84646 0.146074,0.2756 0.317117,0.54018 0.567924,0.81028 0.250807,0.2701 0.581702,0.5457 0.906921,0.78548 0.32522,0.23978 0.644749,0.44373 0.986504,0.59532 0.341754,0.15158 0.70538,0.2508 1.04438,0.32246 0.339001,0.0717 0.653186,0.11558 1.025261,0.11834 0.372074,0.003 0.802188,-0.036 1.212846,-0.17932 0.410657,-0.14332 0.801947,-0.39129 4.57233,-4.07624 3.770384,-3.68494 10.919736,-10.80656 14.516427,-14.40325 3.596691,-3.5967 3.640604,-3.66833 3.657141,-3.74551 0.01654,-0.0772 0.0053,-0.1595 -0.262,-0.43512 -0.267345,-0.27561 -0.790993,-0.74431 -1.314648,-1.21284 l 7.70599,-7.78867 z m -27.153898,26.07386 c 0.115066,0.003 0.236678,0.0183 0.356568,0.0486 0.23978,0.0606 0.471631,0.1819 0.722436,0.35553 0.250806,0.17364 0.52055,0.39963 0.74104,0.69453 0.22049,0.29491 0.391705,0.65853 0.441317,1.01958 0.04961,0.36105 -0.02205,0.71916 -0.132292,1.02784 -0.110243,0.30868 -0.259414,0.56758 -0.490926,0.78807 -0.231512,0.22049 -0.545699,0.40239 -0.892969,0.49609 -0.347269,0.0937 -0.727425,0.0994 -1.003039,0.0718 -0.275614,-0.0276 -0.446316,-0.0882 -0.606165,-0.1819 -0.159849,-0.0937 -0.309023,-0.22031 -0.441316,-0.33331 -0.132294,-0.113 -0.248051,-0.21222 -0.355534,-0.33073 -0.107483,-0.11851 -0.206362,-0.25649 -0.302824,-0.45217 -0.09646,-0.19568 -0.190341,-0.44941 -0.220658,-0.70848 -0.03032,-0.25907 0.0028,-0.52348 0.07441,-0.7798 0.07166,-0.25632 0.181899,-0.50453 0.338997,-0.72502 0.157098,-0.22049 0.360872,-0.41341 0.540019,-0.53743 0.179146,-0.12403 0.33366,-0.17915 0.410827,-0.20671 0.07717,-0.0276 0.07734,-0.027 0.137976,-0.0656 0.06063,-0.0386 0.181722,-0.11592 0.366386,-0.15451 0.09233,-0.0193 0.200677,-0.0291 0.315743,-0.0264 z"
       transform="translate(-1.1666667e-6)" /><path
       style="opacity:1;fill:#000000;fill-opacity:1;stroke-width:0.264583"
       d="m 104.09892,146.39749 c 4.19001,-4.19781 12.57002,-12.59341 16.80098,-16.82241 4.23095,-4.229 4.31276,-4.29133 4.4979,-4.35369 0.18515,-0.0624 0.47356,-0.12473 0.7581,-0.15396 0.28453,-0.0292 0.56516,-0.0253 1.52985,0.17541 0.96469,0.20073 2.61338,0.59829 3.49037,0.82826 0.87699,0.22996 0.9822,0.29232 1.50255,0.30985 0.52035,0.0175 1.45578,-0.01 1.9664,-0.0546 0.51062,-0.0448 0.59632,-0.10717 0.83213,-0.19292 0.23581,-0.0858 0.62168,-0.19489 0.95494,-0.31572 0.33325,-0.12083 0.61387,-0.25334 0.85943,-0.40925 0.24556,-0.15592 0.45603,-0.33521 0.66455,-0.49501 0.20853,-0.15981 0.4151,-0.30012 4.08679,-4.03222 3.67168,-3.73211 10.8082,-11.0557 14.39018,-14.73707 3.58198,-3.68136 3.60929,-3.72035 3.62488,-3.84117 0.0156,-0.12082 0.0195,-0.32349 0.0156,-0.48525 -0.004,-0.16175 -0.0156,-0.28258 -0.0351,-0.44433 -0.0195,-0.16176 -0.0468,-0.36443 -0.13061,-0.53203 -0.0838,-0.16761 -0.22412,-0.30013 -0.37808,-0.42095 -0.15396,-0.12083 -0.32156,-0.22997 -0.49112,-0.31767 -0.16955,-0.0877 -0.34104,-0.153954 -0.5749,-0.179288 -0.23386,-0.02533 -0.53008,-0.0097 -0.73666,0.05847 -0.20658,0.06821 -0.32351,0.189042 -3.68143,3.289702 -3.35791,3.10066 -9.95655,9.18092 -13.29494,12.23867 -3.33839,3.05774 -3.41631,3.09281 -3.55467,3.11814 -0.13836,0.0253 -0.33714,0.0409 -0.54762,0.0254 -0.21048,-0.0156 -0.43263,-0.0623 -0.63142,-0.14811 -0.19879,-0.0857 -0.37418,-0.21047 -0.53593,-0.35079 -0.16176,-0.14032 -0.30987,-0.29622 -0.43654,-0.45798 -0.12668,-0.16175 -0.23191,-0.32935 -0.30402,-0.51644 -0.0721,-0.18709 -0.11108,-0.39367 -0.12277,-0.64702 -0.0117,-0.25335 0.004,-0.55346 0.0994,-0.81071 0.0955,-0.25725 0.27089,-0.47162 3.48654,-3.73794 3.21565,-3.26632 9.4713,-9.58433 12.60699,-12.76289 3.13569,-3.178562 3.15129,-3.217532 3.16884,-3.320825 0.0175,-0.103292 0.037,-0.270887 0.037,-0.448233 0,-0.177347 -0.0195,-0.364434 -0.12669,-0.572962 -0.1072,-0.208527 -0.30208,-0.438487 -0.52035,-0.643116 -0.21827,-0.204629 -0.45992,-0.383918 -0.69184,-0.502798 -0.23191,-0.11888 -0.45407,-0.177343 -0.63727,-0.181241 -0.18319,-0.0039 -0.3274,0.04677 -0.47941,0.138365 -0.15201,0.0916 -0.31181,0.224115 -3.68532,3.357912 -3.37351,3.133798 -9.96046,9.268628 -13.2969,12.355598 -3.33644,3.08698 -3.42216,3.12594 -3.54298,3.15908 -0.12082,0.0331 -0.27672,0.0604 -0.47356,0.0487 -0.19684,-0.0117 -0.43459,-0.0623 -0.67625,-0.15785 -0.24165,-0.0955 -0.4872,-0.2358 -0.68988,-0.37417 -0.20269,-0.13837 -0.36249,-0.27479 -0.48332,-0.46774 -0.12083,-0.19294 -0.20268,-0.44237 -0.29232,-0.69377 -0.0897,-0.2514 -0.18709,-0.50475 -0.1676,-0.7542 0.0195,-0.24946 0.15591,-0.49501 0.28064,-0.72497 0.12472,-0.22997 0.23775,-0.44434 0.41705,-0.67235 0.17929,-0.22802 0.42484,-0.46967 3.58787,-3.60347 3.16303,-3.13379 9.24329,-9.159486 12.28543,-12.193833 3.04214,-3.034346 3.04604,-3.077235 3.05579,-3.213647 0.01,-0.136412 0.0254,-0.36637 -0.0506,-0.578796 -0.076,-0.212427 -0.24361,-0.407306 -0.44044,-0.598292 -0.19683,-0.190985 -0.4229,-0.378075 -0.64896,-0.530085 -0.22607,-0.15201 -0.45213,-0.268937 -0.63922,-0.321557 -0.18709,-0.05262 -0.3352,-0.04093 -0.48721,0.01559 -0.15201,0.05652 -0.30792,0.157855 -4.21932,3.825645 -3.9114,3.667789 -11.57798,10.901745 -15.4328,14.557785 -3.85482,3.65605 -3.89768,3.73398 -3.96978,3.87819 -0.0721,0.1442 -0.17344,0.35467 -0.26699,0.55931 -0.0935,0.20464 -0.17929,0.4034 -0.24165,0.59049 -0.0624,0.18709 -0.10134,0.36249 -0.12864,0.48918 -0.0273,0.1267 -0.0429,0.20461 -0.0487,0.86528 -0.006,0.66066 -0.002,1.904 0.0175,2.60559 0.0195,0.70158 0.0546,0.86137 0.26504,1.58636 0.21048,0.72498 0.59634,2.01509 0.78537,2.69916 0.18903,0.68408 0.18124,0.76197 0.17539,1.20632 -0.006,0.44434 -0.01,1.25504 -0.037,1.72667 -0.0273,0.47162 -0.078,0.60413 -4.26609,4.86827 -4.18814,4.26415 -12.51342,12.65959 -20.838867,21.05519 0.834103,0.77954 1.668206,1.55907 2.085258,1.94884 0.417052,0.38977 0.417032,0.38973 4.607039,-3.80807 z"
       id="path40"
       inkscape:label="Tenedor" /><path
       id="path36"
       style="opacity:1;fill:#000000;fill-opacity:1;stroke-width:0.264583"
       inkscape:label="Espatula"
       d="m 47.367288,87.963461 c -0.08258,-0.0032 -0.163906,0.001 -0.250631,0.0098 -0.173449,0.01754 -0.368475,0.05284 -0.54777,0.09767 -0.179295,0.04482 -0.342982,0.09936 -2.632914,2.29185 -2.289932,2.192489 -6.705845,6.52284 -8.900232,8.725049 -2.194387,2.202213 -2.16688,2.276163 -2.15129,2.605523 0.01559,0.32936 0.01919,0.91394 0.02894,1.22577 0.0097,0.31182 0.02541,0.3505 3.921208,4.17029 3.8958,3.81978 11.671626,11.42013 15.573209,15.22232 3.901584,3.80219 3.928765,3.80631 4.010608,3.83749 0.08184,0.0312 0.218598,0.0896 0.42323,0.1695 0.204632,0.0799 0.477467,0.18148 1.030945,0.2341 0.553478,0.0526 1.387408,0.0563 1.862935,0.0212 0.475528,-0.0351 0.592308,-0.10897 1.650546,-0.44028 1.058237,-0.33131 3.058062,-0.91988 5.057572,-1.50843 12.694743,12.39852 25.389162,24.79682 31.761886,31.03118 6.372721,6.23436 6.423671,6.30462 6.462651,6.3748 0.039,0.0702 0.0662,0.14033 -0.21445,0.4346 -0.28066,0.29427 -0.86943,0.81283 -1.17151,1.09347 -0.30208,0.28065 -0.3174,0.32299 -0.31936,0.38344 -0.002,0.0605 0.01,0.13872 0.0486,0.21084 0.039,0.0721 0.10506,0.13834 3.78064,3.73207 3.67559,3.59374 10.96035,10.71457 14.60273,14.2751 3.64238,3.56053 3.6424,3.56013 3.7145,3.60495 0.0721,0.0448 0.21619,0.13447 0.38964,0.22996 0.17345,0.0955 0.37642,0.19708 0.56741,0.27699 0.191,0.0799 0.37038,0.13843 0.55552,0.17156 0.18515,0.0331 0.37605,0.0407 0.58653,0.0465 0.21048,0.006 0.44012,0.0101 0.67593,-0.002 0.23581,-0.0117 0.47769,-0.039 0.76222,-0.11886 0.28454,-0.0799 0.61166,-0.21256 0.96635,-0.41134 0.35469,-0.19878 0.73683,-0.46396 1.02526,-0.70952 0.28843,-0.24555 0.48348,-0.47147 0.65888,-0.71313 0.1754,-0.24166 0.33125,-0.49915 0.46767,-0.73691 0.13642,-0.23776 0.25308,-0.45604 0.34468,-0.63924 0.0916,-0.18319 0.15799,-0.33124 0.20671,-0.46767 0.0487,-0.13642 0.0801,-0.26106 0.10542,-0.68006 0.0253,-0.419 0.0446,-1.13213 -0.004,-1.67587 -0.0487,-0.54373 -0.1656,-0.91788 -0.30592,-1.21801 -0.14032,-0.30013 -0.3037,-0.52618 -0.44597,-0.68988 -0.14227,-0.1637 -0.26313,-0.2653 -3.90364,-3.79667 -3.6405,-3.53137 -10.80062,-10.49245 -17.96066,-17.45371 -0.73666,0.69768 -1.47329,1.39537 -1.88257,1.76371 -0.40928,0.36835 -0.49084,0.40759 -0.56689,0.43099 -0.0761,0.0234 -0.14658,0.0309 -0.22066,0.0212 -0.0741,-0.01 -0.15197,-0.037 -0.21239,-0.0858 -0.0604,-0.0487 -0.1032,-0.11837 -6.34741,-6.27197 -6.244227,-6.15359 -18.689277,-18.39022 -24.933366,-24.52615 -6.244089,-6.13593 -6.287067,-6.17126 -6.314343,-6.20634 -0.02728,-0.0351 -0.03851,-0.0699 0.0083,-0.24236 0.04678,-0.17246 0.151683,-0.48251 0.309542,-0.93173 0.157859,-0.44921 0.368667,-1.03789 0.559655,-1.63814 0.190989,-0.60025 0.362141,-1.21225 0.496611,-1.66243 0.13447,-0.45019 0.232223,-0.73832 0.312126,-0.99167 0.0799,-0.25335 0.142038,-0.47145 0.200504,-0.69557 0.05847,-0.22412 0.112951,-0.45418 0.151929,-1.26297 0.03898,-0.80878 0.06251,-2.19624 0.01964,-3.02255 -0.04288,-0.82631 -0.152285,-1.09174 -0.226343,-1.28468 -0.07406,-0.19294 -0.112579,-0.31372 -3.852478,-3.98735 -3.739898,-3.67364 -11.18092,-10.899561 -14.975313,-14.553637 -3.794394,-3.654076 -3.942018,-3.736121 -4.123263,-3.819922 -0.181244,-0.0838 -0.395583,-0.169515 -0.578776,-0.21239 -0.0916,-0.02144 -0.1758,-0.03197 -0.258382,-0.03514 z m 0.929142,6.772197 c 0.122215,0.001 0.231509,0.02687 0.357601,0.06821 0.168123,0.05512 0.366385,0.137976 0.523482,0.212391 0.157098,0.07441 0.272851,0.140559 2.844271,2.629296 2.57142,2.488733 7.59828,7.399843 10.139433,9.924463 2.541153,2.52461 2.596742,2.66254 2.613277,2.94917 0.01653,0.28663 -0.0059,0.72209 -0.102319,1.0666 -0.09646,0.34452 -0.266993,0.59824 -0.559139,0.84905 -0.292146,0.2508 -0.705553,0.49884 -0.959115,0.64492 -0.253562,0.14607 -0.347611,0.18999 -0.474389,0.19275 -0.126778,0.003 -0.286283,-0.0357 -0.418579,-0.0935 -0.132297,-0.0579 -0.237189,-0.13505 -2.883029,-2.66237 -2.645839,-2.52733 -7.832767,-7.50497 -10.426237,-9.99371 -2.593469,-2.488735 -2.593296,-2.488564 -2.673221,-2.598807 -0.07993,-0.110242 -0.23995,-0.330726 -0.319878,-0.529166 -0.07993,-0.19844 -0.07975,-0.37517 -0.0026,-0.581877 0.07717,-0.206707 0.231164,-0.443726 0.393774,-0.669726 0.16261,-0.226001 0.333655,-0.44097 0.534851,-0.644922 0.201196,-0.203953 0.432874,-0.396874 0.658875,-0.529167 0.226,-0.132293 0.446137,-0.203776 0.625284,-0.225826 0.04479,-0.0055 0.0869,-0.0081 0.127641,-0.0078 z m -5.973795,6.166552 c 0.05757,0.002 0.115064,0.007 0.171565,0.0176 0.226004,0.0413 0.440798,0.15709 0.664043,0.30592 0.223244,0.14883 0.454922,0.33073 2.998783,2.78639 2.543861,2.45567 7.399671,7.18522 9.910506,9.67125 2.510835,2.48603 2.676496,2.72817 2.756421,2.99826 0.07992,0.2701 0.07442,0.56792 0.03307,0.79944 -0.04134,0.23151 -0.118512,0.3967 -0.256315,0.58963 -0.137803,0.19292 -0.336067,0.41358 -0.556555,0.60099 -0.220489,0.18742 -0.463187,0.34158 -0.700216,0.43254 -0.237029,0.0909 -0.468526,0.1185 -0.669727,0.11575 -0.2012,-0.003 -0.372065,-0.0355 -0.537434,-0.0879 -0.16537,-0.0524 -0.325036,-0.12436 -2.937806,-2.59106 -2.612769,-2.46669 -7.678429,-7.32823 -10.211263,-9.75909 -2.532834,-2.43086 -2.533177,-2.43103 -2.599324,-2.50269 -0.06615,-0.0717 -0.198092,-0.2148 -0.278019,-0.40773 -0.07993,-0.19292 -0.107832,-0.43563 -0.09405,-0.65887 0.01378,-0.22325 0.0689,-0.42685 0.140559,-0.60875 0.07166,-0.1819 0.160194,-0.34192 0.325562,-0.55965 0.165368,-0.21774 0.407724,-0.49334 0.639237,-0.68627 0.231514,-0.19293 0.451819,-0.30299 0.680579,-0.37465 0.17157,-0.0537 0.347654,-0.0859 0.520382,-0.0811 z m 84.355055,77.32344 c 0.0402,-0.002 0.0805,-0.002 0.12144,5.2e-4 0.16371,0.0117 0.33489,0.07 0.42065,0.0992 0.0858,0.0292 0.0861,0.029 0.14263,0.0387 0.0565,0.01 0.16953,0.0293 0.32349,0.0956 0.15396,0.0663 0.34888,0.17932 0.52038,0.31574 0.1715,0.13642 0.31957,0.29613 0.44235,0.47542 0.12278,0.1793 0.22011,0.37809 0.29611,0.59635 0.076,0.21826 0.13034,0.45637 0.13229,0.69608 0.002,0.23971 -0.0486,0.48114 -0.14211,0.70332 -0.0935,0.22217 -0.22973,0.42512 -0.36225,0.59272 -0.13253,0.16761 -0.26123,0.29985 -0.44442,0.43822 -0.18319,0.13837 -0.42113,0.28283 -0.63355,0.37052 -0.21242,0.0877 -0.39917,0.11839 -0.63304,0.11059 -0.23387,-0.008 -0.51481,-0.0545 -0.74672,-0.12661 -0.23192,-0.0721 -0.41481,-0.1692 -0.5824,-0.29197 -0.16759,-0.12277 -0.31997,-0.27086 -0.4408,-0.41703 -0.12083,-0.14616 -0.21018,-0.29076 -0.30179,-0.45837 -0.0916,-0.16761 -0.18534,-0.35823 -0.21652,-0.61547 -0.0312,-0.25723 -1.4e-4,-0.58102 0.0486,-0.82268 0.0487,-0.24167 0.11498,-0.40115 0.22996,-0.5824 0.11499,-0.18125 0.27901,-0.38395 0.44856,-0.5457 0.16954,-0.16176 0.34475,-0.28278 0.51624,-0.37827 0.1715,-0.0955 0.33899,-0.16545 0.50075,-0.21808 0.12132,-0.0395 0.23969,-0.0691 0.36018,-0.0765 z" /><path
       style="opacity:1;fill:#c1440e;fill-opacity:1;stroke-width:0.264583"
       d="m 86.594437,78.090634 c -0.194884,-0.101339 -0.584653,-0.304019 -0.904265,-0.834112 -0.319612,-0.530092 -0.569058,-1.387565 -0.670397,-2.237268 -0.101339,-0.849703 -0.05457,-1.691585 0.265048,-2.642629 0.319616,-0.951045 0.912051,-2.011193 1.488913,-2.931053 0.576862,-0.91986 1.138117,-1.699382 1.78514,-2.782951 0.647022,-1.083569 1.379771,-2.471115 1.761744,-3.476723 0.381973,-1.005608 0.413152,-1.629224 0.498902,-1.933243 0.08575,-0.30402 0.226063,-0.28843 0.491109,-0.0078 0.265047,0.280638 0.654807,0.826302 0.935442,1.527893 0.280635,0.701592 0.452129,1.559064 0.522288,2.61145 0.07016,1.052387 0.03898,2.299619 -0.350796,3.780755 -0.389775,1.481136 -1.138114,3.196082 -1.894272,4.568075 -0.756157,1.371994 -1.520088,2.400962 -2.143722,3.086956 -0.623634,0.685995 -1.106937,1.028984 -1.348593,1.200482 -0.241656,0.171498 -0.241657,0.1715 -0.436541,0.07016 z"
       id="path55"
       inkscape:label="Flamita 2" /><path
       style="display:inline;opacity:1;mix-blend-mode:normal;fill:#c1440e;fill-opacity:1;stroke-width:0.264583"
       d="m 81.722336,85.246776 c -0.202679,-0.194884 -0.608037,-0.584652 -1.028992,-1.255063 -0.420954,-0.670411 -0.857485,-1.621426 -1.114733,-2.97004 -0.257248,-1.348615 -0.3352,-3.094741 -0.257244,-4.295233 0.07796,-1.200492 0.311813,-1.85529 0.615836,-2.595858 0.304022,-0.740567 0.678192,-1.566858 0.974418,-1.995603 0.296227,-0.428745 0.514493,-0.459924 0.717173,0.0078 0.202681,0.467732 0.389766,1.434338 0.70938,2.182698 0.319615,0.748359 0.771737,1.278433 1.223872,2.089162 0.452135,0.810728 0.904257,1.902057 1.122527,2.892076 0.218271,0.99002 0.202681,1.878674 -0.101344,2.70499 -0.304025,0.826316 -0.89646,1.590246 -1.387572,2.151516 -0.491112,0.56127 -0.880873,0.919849 -1.075757,1.099142 -0.194884,0.179293 -0.194885,0.179289 -0.397564,-0.0156 z"
       id="path54"
       inkscape:label="Flamita 1"
       transform="translate(-1.1666667e-6)" /><path
       style="display:inline;opacity:1;mix-blend-mode:normal;fill:#c1440e;fill-opacity:1;stroke-width:0.264583"
       d="m 86.091636,127.33393 c 0.214371,0.078 0.643116,0.23386 1.258958,0.44434 0.615842,0.21048 1.418748,0.47552 2.28794,0.68989 0.869192,0.21437 1.804617,0.37807 2.537383,0.50669 0.732767,0.12863 1.262845,0.22217 2.046291,0.29233 0.783445,0.0702 1.820204,0.11693 2.911569,0.10913 1.091364,-0.008 2.237257,-0.0701 3.262353,-0.21437 1.0251,-0.14421 1.92935,-0.37027 3.08308,-0.79123 1.15372,-0.42096 2.55686,-1.03678 3.58585,-1.55128 1.029,-0.5145 1.68379,-0.92764 2.36199,-1.37978 0.67821,-0.45214 1.37978,-0.94323 1.94105,-1.40706 0.56127,-0.46383 0.98221,-0.90036 1.40316,-1.3525 0.42096,-0.45213 0.8419,-0.91984 1.26675,-1.36418 0.42485,-0.44434 0.85359,-0.86528 1.33691,-1.50451 0.48331,-0.63923 1.02118,-1.4967 1.54348,-2.38928 0.52229,-0.89258 1.02898,-1.82021 1.47722,-2.93885 0.44823,-1.11865 0.83799,-2.42825 1.14201,-3.68721 0.30402,-1.25896 0.52229,-2.46722 0.62752,-3.59756 0.10524,-1.13034 0.0974,-2.18269 0.0585,-3.31692 -0.039,-1.13424 -0.10913,-2.3503 -0.37028,-3.60536 -0.26115,-1.255067 -0.71327,-2.54907 -1.08355,-3.55468 -0.37029,-1.00561 -0.65871,-1.722768 -0.92376,-2.276241 -0.26504,-0.553474 -0.50669,-0.943233 -0.8341,-1.492814 -0.32741,-0.549581 -0.74056,-1.258943 -1.22777,-1.948841 -0.48722,-0.689897 -1.04847,-1.360283 -1.57077,-1.89427 -0.52229,-0.533987 -1.00559,-0.931541 -1.30961,-1.157607 -0.30402,-0.226066 -0.42875,-0.280635 -0.49111,-0.222167 -0.0624,0.05847 -0.0624,0.229962 -0.0702,0.467723 -0.008,0.237761 -0.0234,0.541775 0.004,0.849699 0.0273,0.307924 0.0974,0.619723 0.18318,0.849687 0.0857,0.229964 0.18709,0.378076 0.30792,0.775645 0.12083,0.39757 0.26114,1.044571 0.38977,2.143733 0.12862,1.099161 0.24555,2.650408 0.30792,3.691095 0.0624,1.040687 0.0702,1.570758 0.039,2.034589 -0.0312,0.463832 -0.10134,0.86138 -0.19099,1.157605 -0.0896,0.296225 -0.19878,0.491104 -0.3313,0.619734 -0.13253,0.12863 -0.28843,0.19099 -0.46772,0.20657 -0.1793,0.0156 -0.38197,-0.0156 -0.62753,-0.13256 -0.24555,-0.11694 -0.53398,-0.31962 -0.85749,-0.565175 -0.32351,-0.245555 -0.68209,-0.53398 -0.94713,-0.884776 -0.26504,-0.350796 -0.43654,-0.763938 -0.63922,-1.251155 -0.20269,-0.487216 -0.43654,-1.04847 -0.63922,-1.605843 -0.20268,-0.557374 -0.37418,-1.110835 -0.5106,-1.609742 -0.13642,-0.498908 -0.23776,-0.943232 -0.31182,-1.301825 -0.074,-0.358593 -0.12082,-0.631412 -0.10133,-3.620994 0.0195,-2.989581 0.10523,-8.695673 0.12472,-11.669608 0.0195,-2.973935 -0.0273,-3.215574 -0.0858,-3.468934 -0.0585,-0.253361 -0.12862,-0.518388 -0.21047,-0.876975 -0.0819,-0.358586 -0.1754,-0.810716 -0.28063,-1.270647 -0.10524,-0.459931 -0.22217,-0.927644 -0.35469,-1.407063 -0.13253,-0.479418 -0.28064,-0.970516 -0.48722,-1.461629 -0.20657,-0.491113 -0.47161,-0.982213 -0.71327,-1.461633 -0.24166,-0.47942 -0.45992,-0.947131 -0.6665,-1.387573 -0.20658,-0.440443 -0.40146,-0.853589 -0.62363,-1.251156 -0.22217,-0.397567 -0.47162,-0.779533 -0.75615,-1.239465 -0.28454,-0.459932 -0.60414,-0.997799 -0.89647,-1.430445 -0.29233,-0.432646 -0.55736,-0.760041 -0.8458,-1.087451 -0.28843,-0.32741 -0.60024,-0.654811 -0.86138,-0.935445 -0.26115,-0.280635 -0.47162,-0.514492 -0.70938,-0.744457 -0.23776,-0.229965 -0.5028,-0.456027 -0.814616,-0.736662 -0.311817,-0.280636 -0.670396,-0.615829 -1.048475,-0.951033 -0.378079,-0.335204 -0.775636,-0.670399 -1.177101,-0.947136 -0.401464,-0.276737 -0.806816,-0.495003 -1.180996,-0.697684 -0.374181,-0.202681 -0.717171,-0.389767 -1.114739,-0.611937 -0.397568,-0.222171 -0.849688,-0.479412 -1.30962,-0.682093 -0.459932,-0.202681 -0.927644,-0.350789 -1.3447,-0.463823 -0.417055,-0.113033 -0.78343,-0.190985 -1.09135,-0.229962 -0.307919,-0.03898 -0.557365,-0.03898 -0.693784,0.01949 -0.136418,0.05847 -0.159804,0.175393 -0.171498,0.280634 -0.01169,0.10524 -0.01169,0.198779 0.0078,0.296222 0.01949,0.09744 0.05846,0.198779 0.144214,0.323507 0.08575,0.124728 0.21827,0.272838 0.385872,0.459929 0.167602,0.18709 0.370278,0.413151 0.678198,0.77564 0.307921,0.362489 0.721067,0.861382 1.044577,1.278438 0.32351,0.417055 0.557366,0.752249 0.740558,1.138124 0.183192,0.385874 0.315711,0.822405 0.413154,1.149812 0.09744,0.327407 0.159804,0.545674 0.257247,0.865288 0.09744,0.319614 0.229961,0.740556 0.3352,1.106941 0.105238,0.366385 0.183191,0.678192 0.23581,1.009498 0.05262,0.331307 0.0799,0.682091 0.122776,1.200489 0.04287,0.518398 0.101339,1.204377 0.0838,1.662358 -0.01754,0.45798 -0.111083,0.687937 -0.171497,1.003653 -0.06041,0.315716 -0.0877,0.71717 -0.177345,1.145919 -0.08965,0.42875 -0.241654,0.884769 -0.422898,1.502559 -0.181244,0.61779 -0.391716,1.397311 -0.894524,2.607557 -0.502809,1.210245 -1.297921,2.851137 -2.299636,4.534952 -1.001715,1.683814 -2.209972,3.410454 -3.860661,5.532766 -1.650689,2.122313 -3.743701,4.640163 -5.36125,6.672819 -1.617549,2.032656 -2.759547,3.580005 -3.800237,5.139092 -1.04069,1.559088 -1.980012,3.129823 -2.794634,4.764918 -0.814623,1.635096 -1.504497,3.334446 -1.888419,4.336156 -0.383922,1.0017 -0.461876,1.30572 -0.481364,1.60974 -0.01949,0.30402 0.01949,0.60803 0.01949,0.92374 0,0.31572 -0.03898,0.64313 -0.0877,1.029 -0.04872,0.38588 -0.107185,0.8302 -0.124724,1.30962 -0.01754,0.47942 0.0058,0.9939 0.05457,1.54348 0.04872,0.54958 0.122776,1.13422 0.212424,1.6721 0.08965,0.53789 0.194883,1.02899 0.33715,1.56883 0.142267,0.53983 0.321557,1.12837 0.514493,1.676 0.192936,0.54762 0.39951,1.05431 0.650914,1.60389 0.251405,0.54958 0.547624,1.14202 0.937397,1.78904 0.389772,0.64702 0.873075,1.34859 1.434346,2.07356 0.561271,0.72498 1.200477,1.47332 1.855294,2.10475 0.654817,0.63143 1.325204,1.14591 1.960532,1.61364 0.635329,0.46772 1.235565,0.88867 1.828016,1.28233 0.592451,0.39367 1.177094,0.76005 1.734466,1.10694 0.557373,0.3469 1.087447,0.6743 1.35249,0.83801 0.265043,0.1637 0.265073,0.16375 0.479444,0.2417 z"
       id="path41"
       inkscape:label="Flama 4"
       transform="translate(-1.1666667e-6)" /><path
       style="display:inline;opacity:1;mix-blend-mode:normal;fill:#e85d04;fill-opacity:1;stroke-width:0.264583"
       d="m 94.236729,128.70935 c 0.898482,0 2.695442,0 3.858512,-0.0221 1.163069,-0.0221 1.692227,-0.0661 2.430859,-0.23702 0.73864,-0.17088 1.68671,-0.46853 2.5852,-0.76619 0.89849,-0.29766 1.74735,-0.59531 2.51354,-0.95912 0.7662,-0.3638 1.44969,-0.79374 2.08911,-1.29536 0.63942,-0.50161 1.23471,-1.07485 1.77491,-1.5489 0.5402,-0.47405 1.02526,-0.84887 1.51585,-1.37253 0.49058,-0.52367 0.98667,-1.19614 1.43315,-1.94028 0.44649,-0.74415 0.84336,-1.55994 1.20165,-2.39779 0.35829,-0.83786 0.678,-1.69774 0.82683,-3.07579 0.14884,-1.37806 0.1268,-3.2742 -0.0661,-4.72942 -0.19292,-1.45522 -0.55672,-2.46944 -0.93155,-3.33485 -0.37483,-0.86542 -0.76067,-1.58198 -1.35048,-2.55764 -0.58981,-0.97567 -1.38354,-2.21036 -2.37022,-3.62149 -0.98669,-1.411129 -2.16627,-2.998598 -3.41203,-4.630212 -1.24576,-1.631614 -2.55763,-3.307277 -3.53329,-4.608152 -0.97565,-1.300876 -1.61505,-2.226901 -2.28203,-3.351392 -0.666973,-1.124492 -1.36149,-2.447383 -1.841049,-3.753777 -0.47956,-1.306393 -0.744138,-2.596211 -0.810282,-3.891579 -0.06614,-1.295368 0.06614,-2.596211 0.358293,-3.726212 0.292149,-1.130001 0.744136,-2.089097 1.240236,-2.805682 0.496099,-0.716584 1.036282,-1.19062 1.344962,-1.488284 0.30869,-0.297663 0.38585,-0.418915 0.42443,-0.57877 0.0386,-0.159854 0.0386,-0.358288 -0.0992,-0.529167 -0.13781,-0.170879 -0.41341,-0.31419 -0.92053,-0.259067 -0.507128,0.05512 -1.245741,0.308678 -2.083599,0.677998 -0.837857,0.369319 -1.774903,0.854379 -2.684417,1.510333 -0.909514,0.655955 -1.791442,1.482761 -2.548107,2.346064 -0.756665,0.863302 -1.388027,1.763048 -1.918091,2.618298 -0.530065,0.85525 -0.958801,1.665951 -1.329083,2.472779 -0.370283,0.806828 -0.682091,1.609735 -0.982216,2.397074 -0.300124,0.787339 -0.588546,1.559065 -0.799022,2.295733 -0.210476,0.736667 -0.342994,1.438236 -0.45213,2.190497 -0.109136,0.752261 -0.194883,1.555168 -0.218269,2.397075 -0.02339,0.841906 0.01559,1.722765 0.06236,2.400966 0.04677,0.678201 0.101339,1.153708 0.132522,1.866994 0.03118,0.713286 0.03898,1.664299 0.04677,2.459433 0.0078,0.795134 0.01559,1.434341 -0.05067,2.268454 -0.06626,0.834114 -0.206576,1.863086 -0.307916,2.689396 -0.101339,0.82631 -0.163701,1.44993 -0.323509,1.99171 -0.159808,0.54179 -0.417047,1.0017 -0.724967,1.41876 -0.307919,0.41705 -0.6665,0.79122 -1.0095,1.06017 -0.343,0.26894 -0.6704,0.43264 -0.935444,0.44433 -0.265043,0.0117 -0.467717,-0.12862 -0.588546,-0.37028 -0.120829,-0.24166 -0.159804,-0.58465 -0.179293,-1.02899 -0.01949,-0.44435 -0.01949,-0.99001 0.0078,-1.71499 0.02729,-0.72498 0.08185,-1.62922 0.194885,-2.38148 0.113033,-0.75225 0.284528,-1.352485 0.483312,-1.851393 0.198784,-0.498907 0.424845,-0.896462 0.549571,-1.22387 0.124726,-0.327407 0.148112,-0.58465 0.06236,-0.802922 -0.08575,-0.218273 -0.280631,-0.397561 -0.475517,-0.463821 -0.194886,-0.06626 -0.389765,-0.01949 -0.60414,0.159807 -0.214375,0.179296 -0.448232,0.491105 -0.791232,0.923753 -0.343001,0.432648 -0.795123,0.986107 -1.200487,1.520096 -0.405363,0.53399 -0.763941,1.04847 -1.075758,1.57076 -0.311817,0.5223 -0.576851,1.05237 -0.837999,1.66432 -0.261147,0.61194 -0.518389,1.30571 -0.717172,1.98781 -0.198784,0.6821 -0.339098,1.35249 -0.491109,2.09695 -0.152011,0.74447 -0.315711,1.56297 -0.397561,2.37759 -0.08185,0.81462 -0.08185,1.62533 0.0039,2.37369 0.08575,0.74836 0.257245,1.43434 0.452131,2.22168 0.194885,0.78734 0.41315,1.67599 0.662605,2.5062 0.249455,0.83022 0.530081,1.60194 0.865288,2.32692 0.335206,0.72498 0.724965,1.40316 1.235568,2.11254 0.510602,0.70939 1.142012,1.44993 2.069672,2.35031 0.92766,0.90037 2.151507,1.96052 3.258459,2.76735 1.106951,0.80682 2.09694,1.36028 2.868687,1.74615 0.771746,0.38587 1.325206,0.60414 1.937287,0.76062 0.612081,0.15648 1.28274,0.25117 1.618079,0.29851 0.335338,0.0473 0.335279,0.0473 1.23376,0.0473 z"
       id="path46"
       inkscape:label="Flama 3"
       transform="translate(-1.1666667e-6)" /><path
       style="display:inline;opacity:1;mix-blend-mode:normal;fill:#f48c06;fill-opacity:1;stroke-width:0.264583"
       d="m 94.049316,128.69281 c 0.942579,0.0165 2.827735,0.0496 4.145147,-0.0496 1.317412,-0.0992 2.067047,-0.33073 2.794657,-0.59532 0.72761,-0.26458 1.43315,-0.56223 2.09462,-0.9536 0.66146,-0.39137 1.27881,-0.87643 1.96233,-1.48277 0.68351,-0.60635 1.43315,-1.33394 2.07808,-2.1277 0.64492,-0.79375 1.1851,-1.65363 1.64262,-2.70646 0.45751,-1.05284 0.83233,-2.29856 1.03075,-3.7152 0.19843,-1.41664 0.22047,-3.00411 0.0992,-4.26089 -0.12128,-1.25678 -0.38586,-2.1828 -0.7221,-3.04822 -0.33625,-0.86542 -0.74414,-1.67017 -1.11897,-2.30408 -0.37483,-0.6339 -0.71657,-1.09691 -1.06936,-1.4993 -0.35278,-0.40239 -0.71657,-0.74414 -0.96462,-0.92053 -0.24805,-0.17639 -0.38033,-0.18743 -0.47954,-0.14335 -0.0992,0.0441 -0.16538,0.14332 -0.16538,0.30317 -1e-5,0.15985 0.0662,0.38035 0.19844,0.74416 0.13229,0.3638 0.33072,0.87091 0.45199,1.20715 0.12127,0.33624 0.16537,0.50161 0.19844,1.26781 0.0331,0.7662 0.0551,2.13319 0.0441,2.87182 -0.011,0.73863 -0.0551,0.84887 -0.14884,0.92053 -0.0937,0.0716 -0.237,0.10471 -0.61184,-0.10476 -0.37484,-0.20947 -0.98116,-0.66145 -1.37804,-1.11346 -0.39688,-0.452 -0.58429,-0.90398 -0.74414,-1.54891 -0.15985,-0.64493 -0.29214,-1.48276 -0.30316,-3.33487 -0.011,-1.85212 0.0992,-4.71838 0.0772,-6.537398 -0.0221,-1.819018 -0.1764,-2.590705 -0.36933,-3.340363 -0.19292,-0.749659 -0.42443,-1.477251 -0.7276,-2.215886 -0.30317,-0.738635 -0.67799,-1.488274 -1.16307,-2.298569 -0.48507,-0.810294 -1.080371,-1.681198 -1.802472,-2.497005 -0.7221,-0.815807 -1.570955,-1.576468 -2.359199,-2.11115 -0.788244,-0.534681 -1.515835,-0.843356 -2.045004,-1.058331 -0.52917,-0.214975 -0.859893,-0.33624 -1.163065,-0.391362 -0.303171,-0.05512 -0.578772,-0.0441 -0.694527,0.08268 -0.115755,0.126782 -0.07166,0.369309 0.09371,0.551212 0.165368,0.181903 0.451994,0.303168 0.881948,0.859906 0.429953,0.556737 1.003205,1.548904 1.306374,2.689933 0.303169,1.141029 0.336242,2.430846 0.203947,3.560847 -0.132294,1.130001 -0.429944,2.10012 -0.997704,3.252174 -0.56776,1.152054 -1.40559,2.485967 -2.524571,4.029389 -1.118981,1.54342 -2.519039,3.29625 -3.825431,5.02709 -1.306393,1.73083 -2.519042,3.43956 -3.290747,4.63571 -0.771706,1.19614 -1.102427,1.87963 -1.355989,2.60173 -0.253561,0.7221 -0.429946,1.48276 -0.534677,2.43086 -0.104732,0.94811 -0.137805,2.08359 -0.04961,2.95451 0.0882,0.87093 0.297652,1.47725 0.650435,2.24345 0.352783,0.7662 0.848865,1.69222 1.411113,2.49701 0.562247,0.80478 1.190618,1.48827 1.807985,2.0891 0.617368,0.60083 1.223693,1.11896 1.868623,1.53237 0.644929,0.41342 1.328419,0.7221 2.105642,1.03629 0.777223,0.3142 1.648126,0.6339 2.083586,0.79375 0.43546,0.15985 0.435549,0.15992 1.378128,0.17645 z"
       id="path45"
       inkscape:label="Flama 2"
       transform="translate(-1.1666667e-6)" /><path
       style="display:inline;opacity:1;mix-blend-mode:normal;fill:#ffd700;fill-opacity:1;stroke-width:0.264583"
       d="m 93.657034,128.34733 c 1.364189,0.31181 3.09476,0.31181 4.225091,0.20267 1.130331,-0.10913 1.660407,-0.3274 2.206085,-0.6704 0.54569,-0.343 1.10694,-0.81071 1.59805,-1.27064 0.49111,-0.45993 0.91205,-0.91206 1.21607,-1.37199 0.30402,-0.45993 0.49111,-0.92764 0.56127,-1.73837 0.0702,-0.81073 0.0234,-1.96442 -0.1715,-2.87648 -0.19489,-0.91207 -0.53787,-1.58245 -1.20829,-2.86091 -0.67041,-1.27846 -1.66819,-3.1649 -2.361987,-4.59926 -0.693791,-1.43435 -1.083554,-2.41655 -1.325211,-3.59366 -0.241656,-1.17711 -0.335199,-2.54907 -0.327403,-3.39097 0.0078,-0.8419 0.11693,-1.15371 0.350794,-1.79294 0.233864,-0.63923 0.592446,-1.60584 0.701566,-2.13593 0.109121,-0.53009 -0.03117,-0.62362 -0.187078,-0.59244 -0.155911,0.0312 -0.327402,0.18709 -0.951041,1.06798 -0.623638,0.88089 -1.69938,2.48671 -2.790741,4.10816 -1.091361,1.62145 -2.198278,3.25844 -3.079161,4.70839 -0.880883,1.44995 -1.535684,2.71278 -2.096953,3.99902 -0.561269,1.28625 -1.028979,2.59584 -1.262841,3.97564 -0.233862,1.37979 -0.233862,2.8297 -0.257247,3.60923 -0.02339,0.77954 -0.07016,0.88868 0.22607,1.38759 0.29623,0.49891 0.935434,1.38756 1.753958,2.14372 0.818524,0.75616 1.81631,1.37977 3.180499,1.69159 z"
       id="path44"
       inkscape:label="Flama 1"
       transform="translate(-1.1666667e-6)" /></g></svg>
